# xmcd
#
# Track frame offsets:
#	150
#	15728
#	26811
#	43406
#	57544
#	73352
#	88415
#	104523
#	119476
#	134204
#	147524
#	162842
#	176197
#	190737
#	205140
#	218970
#	235498
#	250181
#	265824
#	278329
#	295174
#
# Disc length: 4165 seconds
#
# Revision: 1
# Processed by: cddbd v1.5.2PL0 Copyright (c) Steve Scherf et al.
# Submitted via: audiograbber 1.83.01
#
DISCID=5e104315
DTITLE=Various Artist - Halland's Country Hits Volume 1
DYEAR=1900
DGENRE=
TTITLE0=Billy Ray Cyrus - She's Not Cryin' Anymore
TTITLE1=Davis Daniel - For Crying Out Loud
TTITLE2=Charlie Daniels - Drinkin' My Baby Goodbye
TTITLE3=Billy Dean - Billy The Kid
TTITLE4=Billy Dean - I Wanna Take Care Of You
TTITLE5=Billy Dean - If There Hadn't Been You
TTITLE6=Billy Dean - Only The Wind
TTITLE7=Billy Dean - Somewhere In Your Broken Heart
TTITLE8=Billy Dean - You Don't Count The Cost
TTITLE9=Desert Rose Band - Love Reunited
TTITLE10=Desert Rose Band - One Step Forward
TTITLE11=Diamond Rio - In A Week Or Two
TTITLE12=Diamond Rio - Meet In The Middle
TTITLE13=Diamond Rio - Mirror Mirror
TTITLE14=Diamond Rio - Norma Jean Riley
TTITLE15=Diamond Rio - Nowhere Bound
TTITLE16=Diamond Rio - Oh Me, Oh My, Sweet Baby
TTITLE17=Joe Diffie - Honky Tonk Attitude
TTITLE18=Joe Diffie - If The Devil Danced (In Empty...)
TTITLE19=Joe Diffie - If You Want Me To
TTITLE20=Joe Diffie - Is It Cold In Here
EXTD=
EXTT0=
EXTT1=
EXTT2=
EXTT3=
EXTT4=
EXTT5=
EXTT6=
EXTT7=
EXTT8=
EXTT9=
EXTT10=
EXTT11=
EXTT12=
EXTT13=
EXTT14=
EXTT15=
EXTT16=
EXTT17=
EXTT18=
EXTT19=
EXTT20=
PLAYORDER=
